<svg width="100" height="100" viewBox="0 0 100 100" xmlns="http://www.w3.org/2000/svg">
  <rect width="100" height="100" fill="#f0f0f0"/>
  <path d="M65.7,56.3c-0.6-1.1-1.5-1.9-2.5-2.5c-0.5-0.3-1.1-0.6-1.7-0.8c1.7-2.8,2.7-6.2,2.7-9.8
    c0-9.9-7.3-18-16.3-18s-16.3,8-16.3,18c0,3.6,1,7,2.7,9.8c-0.6,0.2-1.1,0.5-1.7,0.8c-1.1,0.6-1.9,1.5-2.5,2.5
    c-1.5,2.6-1.1,5.8,0.9,7.2c0.5,0.4,1.1,0.6,1.8,0.8c0.3,0.1,0.7,0.2,1,0.2c0,0,0.1,0,0.1,0c-0.4,1.7-0.2,3.6,0.8,5.1
    c1.5,2.3,4.3,3.2,6.9,2.8c-0.2,1.8,0.3,3.8,1.6,5.5c1.8,2.3,4.5,3.2,7.1,2.7c0.7,1.3,1.7,2.5,2.9,3.4c1.3,0.9,2.8,1.3,4.2,1.3
    c2.5,0,4.9-1.3,6.3-3.6c2.2-3.4,1.6-7.7-1.2-10.3c0.3-0.4,0.5-0.9,0.7-1.3c0.8-2.1,0.6-4.5-0.5-6.4c0.9-0.7,1.7-1.6,2.3-2.6
    C66.8,60.3,66.9,58,65.7,56.3z M63.3,61c-0.4,0.7-1,1.4-1.8,1.8c-0.5,0.3-0.7,0.9-0.6,1.5c0.7,1.3,0.7,2.8,0.2,4.1
    c-0.3,0.9-0.9,1.6-1.6,2.2c-0.5,0.4-0.6,1-0.4,1.6c1.9,1.7,2.5,4.7,1,7.1c-1.1,1.8-3.1,2.7-5,2.2c-0.6-0.1-1.2,0.2-1.5,0.8
    c-0.5,1-1.2,1.8-2.2,2.2c-0.8,0.4-1.7,0.4-2.5,0.2c-0.7-0.2-1.3,0.2-1.6,0.8c-1.5,1.5-3.7,1.7-5.4-0.3c-0.9-1.2-1.3-2.6-1.1-3.9
    c0.1-0.5-0.1-1-0.5-1.3c-0.4-0.3-0.9-0.3-1.4-0.1c-2.1,1-3.9,0.2-4.8-1.2c-0.9-1.4-0.8-3.2,0.1-4.5c0.2-0.4,0.2-0.8,0-1.2
    c-0.2-0.4-0.6-0.6-1-0.7c-1.1-0.1-2.1-0.5-2.7-1.2c-0.9-0.9-0.9-2.3-0.1-3.6c0.4-0.6,0.9-1.2,1.7-1.6c0.8-0.4,1.6-0.7,2.4-0.8
    c0.6-0.1,1-0.5,1.1-1c0.2-0.5,0-1.1-0.4-1.4c-2.4-2.4-3.7-5.8-3.7-9.5c0-7.6,5.5-13.8,12.3-13.8s12.3,6.2,12.3,13.8
    c0,3.7-1.3,7.1-3.7,9.5c-0.4,0.4-0.5,0.9-0.4,1.4c0.2,0.5,0.6,0.9,1.1,1c0.8,0.1,1.7,0.4,2.4,0.8c0.7,0.4,1.3,0.9,1.7,1.6
    C63.7,59.3,63.8,60.3,63.3,61z" fill="#666"/>
</svg> 